<svg width="128" height="67" viewBox="0 0 128 67" fill="none" xmlns="http://www.w3.org/2000/svg">
<path d="M56.664 2.344L63.864 9.688L39.384 34.168L63.72 58.648L56.52 65.992L31.896 41.656L7.848 65.992L0.360001 58.648L24.696 34.168L0.216 9.832L7.704 2.344L32.04 26.968L56.664 2.344Z" fill="#F60707"/>
<path d="M127.8 33.78C127.8 38.76 127.17 43.29 125.91 47.37C124.65 51.39 122.76 54.87 120.24 57.81C117.78 60.75 114.69 63 110.97 64.56C107.31 66.12 103.05 66.9 98.19 66.9C93.15 66.9 88.77 66.12 85.05 64.56C81.33 62.94 78.24 60.69 75.78 57.81C73.32 54.87 71.49 51.36 70.29 47.28C69.09 43.2 68.49 38.67 68.49 33.69C68.49 27.09 69.57 21.33 71.73 16.41C73.89 11.49 77.16 7.65 81.54 4.89C85.98 2.13 91.56 0.749998 98.28 0.749998C104.7 0.749998 110.1 2.13 114.48 4.89C118.86 7.59 122.16 11.43 124.38 16.41C126.66 21.33 127.8 27.12 127.8 33.78ZM77.04 33.78C77.04 39.18 77.79 43.83 79.29 47.73C80.79 51.63 83.1 54.63 86.22 56.73C89.4 58.83 93.39 59.88 98.19 59.88C103.05 59.88 107.01 58.83 110.07 56.73C113.19 54.63 115.5 51.63 117 47.73C118.5 43.83 119.25 39.18 119.25 33.78C119.25 25.68 117.57 19.35 114.21 14.79C110.85 10.17 105.54 7.86 98.28 7.86C93.42 7.86 89.4 8.91 86.22 11.01C83.1 13.05 80.79 16.02 79.29 19.92C77.79 23.76 77.04 28.38 77.04 33.78Z" fill="black"/>
</svg>
